<mxfile host="app.diagrams.net" modified="2023-11-11T00:19:53.259Z" agent="Mozilla/5.0 (Windows NT 10.0; Win64; x64) AppleWebKit/537.36 (KHTML, like Gecko) Chrome/119.0.0.0 Safari/537.36" etag="1qU57c-bQMXoP21SZsd7" version="22.1.0" type="github">
  <diagram name="Page-1" id="8vSy5pJ6bk66M1zKxNNE">
    <mxGraphModel dx="2261" dy="782" grid="1" gridSize="10" guides="1" tooltips="1" connect="1" arrows="1" fold="1" page="1" pageScale="1" pageWidth="827" pageHeight="1169" math="0" shadow="0">
      <root>
        <mxCell id="0" />
        <mxCell id="1" parent="0" />
        <mxCell id="XEbfMwywFH2-LPKe45TC-1" value="Pega&lt;br&gt;COPEI" style="rounded=1;whiteSpace=wrap;html=1;" vertex="1" parent="1">
          <mxGeometry x="170" y="110" width="150" height="70" as="geometry" />
        </mxCell>
        <mxCell id="XEbfMwywFH2-LPKe45TC-8" style="edgeStyle=orthogonalEdgeStyle;rounded=0;orthogonalLoop=1;jettySize=auto;html=1;entryX=1;entryY=0.5;entryDx=0;entryDy=0;entryPerimeter=0;exitX=0.5;exitY=1;exitDx=0;exitDy=0;" edge="1" parent="1" source="XEbfMwywFH2-LPKe45TC-2" target="XEbfMwywFH2-LPKe45TC-5">
          <mxGeometry relative="1" as="geometry">
            <mxPoint x="140" y="600" as="targetPoint" />
          </mxGeometry>
        </mxCell>
        <mxCell id="XEbfMwywFH2-LPKe45TC-10" style="edgeStyle=orthogonalEdgeStyle;rounded=0;orthogonalLoop=1;jettySize=auto;html=1;" edge="1" parent="1" source="XEbfMwywFH2-LPKe45TC-2" target="XEbfMwywFH2-LPKe45TC-9">
          <mxGeometry relative="1" as="geometry" />
        </mxCell>
        <mxCell id="XEbfMwywFH2-LPKe45TC-2" value="Pega&lt;br&gt;My Customer Service?&lt;br&gt;&lt;br&gt;&lt;div style=&quot;text-align: left;&quot;&gt;&lt;span style=&quot;background-color: initial;&quot;&gt;- Casos de Ventas&lt;/span&gt;&lt;/div&gt;&lt;div style=&quot;text-align: left;&quot;&gt;&lt;span style=&quot;background-color: initial;&quot;&gt;- Reclamos/Devoluciones&lt;/span&gt;&lt;br&gt;&lt;/div&gt;" style="rounded=1;whiteSpace=wrap;html=1;" vertex="1" parent="1">
          <mxGeometry x="100" y="320" width="200" height="160" as="geometry" />
        </mxCell>
        <mxCell id="XEbfMwywFH2-LPKe45TC-7" style="edgeStyle=orthogonalEdgeStyle;rounded=0;orthogonalLoop=1;jettySize=auto;html=1;" edge="1" parent="1" source="XEbfMwywFH2-LPKe45TC-4" target="XEbfMwywFH2-LPKe45TC-5">
          <mxGeometry relative="1" as="geometry" />
        </mxCell>
        <mxCell id="XEbfMwywFH2-LPKe45TC-4" value="&lt;div style=&quot;&quot;&gt;&lt;span style=&quot;background-color: initial;&quot;&gt;Sales App&lt;/span&gt;&lt;/div&gt;&lt;div style=&quot;text-align: left;&quot;&gt;&lt;br&gt;&lt;/div&gt;&lt;div style=&quot;text-align: left;&quot;&gt;&lt;span style=&quot;background-color: initial;&quot;&gt;- Inventario&lt;/span&gt;&lt;/div&gt;&lt;div style=&quot;text-align: left;&quot;&gt;&lt;span style=&quot;background-color: initial;&quot;&gt;- Ventas&lt;/span&gt;&lt;/div&gt;" style="rounded=1;whiteSpace=wrap;html=1;" vertex="1" parent="1">
          <mxGeometry x="-190" y="320" width="200" height="160" as="geometry" />
        </mxCell>
        <mxCell id="XEbfMwywFH2-LPKe45TC-5" value="SalesDB" style="shape=cylinder3;whiteSpace=wrap;html=1;boundedLbl=1;backgroundOutline=1;size=15;" vertex="1" parent="1">
          <mxGeometry y="560" width="75" height="100" as="geometry" />
        </mxCell>
        <mxCell id="XEbfMwywFH2-LPKe45TC-9" value="PmyPegaMCS App&lt;br&gt;&lt;br&gt;&lt;div style=&quot;border-color: var(--border-color);&quot;&gt;- Ventas desde App&lt;/div&gt;&lt;div style=&quot;border-color: var(--border-color);&quot;&gt;- Puntos de fidelidad&lt;/div&gt;&lt;div style=&quot;border-color: var(--border-color);&quot;&gt;&lt;br&gt;&lt;/div&gt;&lt;div style=&quot;border-color: var(--border-color);&quot;&gt;&lt;span style=&quot;border-color: var(--border-color); background-color: initial;&quot;&gt;- Reclamos&lt;/span&gt;&lt;/div&gt;&lt;div style=&quot;border-color: var(--border-color);&quot;&gt;&lt;span style=&quot;border-color: var(--border-color); background-color: initial;&quot;&gt;- Devoluciones&lt;/span&gt;&lt;/div&gt;" style="rounded=1;whiteSpace=wrap;html=1;align=center;" vertex="1" parent="1">
          <mxGeometry x="390" y="320" width="120" height="160" as="geometry" />
        </mxCell>
      </root>
    </mxGraphModel>
  </diagram>
</mxfile>
